<svg width="16" height="16" viewBox="0 0 16 16" fill="none" xmlns="http://www.w3.org/2000/svg">
<path d="M11.3333 4C11.8435 3.99997 12.3343 4.19488 12.7055 4.54486C13.0767 4.89483 13.3001 5.37341 13.33 5.88267L13.3333 6V6.05733L13.368 6.07C13.5391 6.13773 13.6882 6.25136 13.7989 6.39839C13.9096 6.54543 13.9776 6.72015 13.9953 6.90333L14 7V9C14 9.20051 13.9398 9.3964 13.8271 9.56224C13.7144 9.72808 13.5544 9.85621 13.368 9.93L13.3333 9.942V10C13.3334 10.5101 13.1385 11.001 12.7885 11.3722C12.4385 11.7433 11.9599 11.9667 11.4507 11.9967L11.3333 12H4C3.48986 12 2.99899 11.8051 2.62783 11.4551C2.25666 11.1052 2.03326 10.6266 2.00333 10.1173L2 10V6C1.99997 5.48986 2.19488 4.99899 2.54486 4.62783C2.89483 4.25666 3.3734 4.03326 3.88267 4.00333L4 4H11.3333Z" fill="#321E15"/>
</svg>
